<?xml version="1.0" standalone="no"?>
<!DOCTYPE svg PUBLIC "-//W3C//DTD SVG 20010904//EN"
 "http://www.w3.org/TR/2001/REC-SVG-20010904/DTD/svg10.dtd">
<svg version="1.0" xmlns="http://www.w3.org/2000/svg"
 width="300.000000pt" height="300.000000pt" viewBox="0 0 300.000000 300.000000"
 preserveAspectRatio="xMidYMid meet">
<metadata>
Created by potrace 1.10, written by Peter Selinger 2001-2011
</metadata>
<g transform="translate(0.000000,300.000000) scale(0.100000,-0.100000)"
fill="#000000" stroke="none">
<path d="M787 2991 c-25 -9 -82 -84 -111 -145 -40 -85 -46 -142 -46 -414 l-1
-257 -201 -115 c-111 -63 -227 -134 -258 -156 -65 -48 -133 -142 -155 -215
-27 -93 6 -119 151 -119 111 0 174 21 330 111 71 41 132 75 136 77 4 2 9 -126
10 -284 l3 -288 26 -15 c24 -13 29 -13 53 2 l26 17 0 320 0 320 34 17 c32 15
37 15 60 -1 l26 -16 0 -855 0 -855 -60 0 -60 0 0 299 c0 328 -1 331 -59 331
-51 0 -51 -2 -51 -327 l0 -303 -294 0 c-162 0 -302 -3 -311 -6 -41 -16 -39
-89 3 -105 32 -12 40 -4 19 19 -10 10 -17 24 -17 30 0 7 88 12 295 14 291 3
295 3 317 26 23 22 23 27 28 309 4 211 8 287 17 290 9 3 13 -65 15 -286 3
-282 4 -291 24 -312 32 -32 115 -31 149 1 l25 23 0 852 c0 832 0 853 -20 877
-10 14 -33 31 -51 38 -27 12 -36 11 -66 -5 -62 -34 -63 -42 -63 -370 0 -251
-2 -295 -15 -295 -12 0 -15 41 -17 264 -3 243 -5 266 -22 285 -11 12 -26 21
-35 21 -8 0 -74 -33 -146 -74 -160 -91 -219 -110 -331 -104 -116 6 -122 13
-79 98 58 116 105 156 340 290 116 67 222 134 238 151 l27 29 0 249 c0 136 4
271 10 300 12 67 51 147 94 197 l34 39 22 -20 c37 -32 87 -117 104 -175 13
-43 16 -105 16 -314 0 -237 2 -264 19 -291 13 -21 83 -67 238 -158 243 -140
303 -191 349 -292 31 -68 26 -92 -22 -101 -44 -8 -166 1 -214 15 -19 6 -91 43
-160 81 -144 82 -168 90 -193 62 -16 -18 -17 -51 -15 -449 3 -446 6 -471 44
-456 25 10 50 72 98 248 35 127 53 176 72 195 l24 25 708 3 c519 2 714 -1 735
-9 15 -7 35 -25 43 -41 19 -37 234 -828 234 -861 0 -15 -5 -37 -11 -50 -23
-51 -28 -52 -412 -57 -420 -6 -387 5 -387 -125 0 -129 -34 -119 444 -123 227
-2 405 -7 410 -12 6 -6 2 -17 -9 -30 -23 -25 -16 -34 17 -21 42 16 44 89 3
105 -9 3 -201 6 -426 6 l-409 0 0 80 0 80 355 0 c330 0 358 1 393 19 46 24 72
67 72 119 0 56 -224 876 -249 911 -11 16 -33 34 -48 40 -21 8 -224 11 -755 9
l-728 -3 -31 -32 c-28 -27 -39 -56 -85 -229 -30 -109 -54 -206 -54 -215 0 -10
-3 -20 -7 -22 -5 -3 -8 195 -8 439 0 332 3 443 12 440 6 -3 66 -37 133 -75
167 -98 218 -114 347 -109 82 3 105 7 122 22 29 27 27 69 -9 144 -51 107 -122
167 -375 313 l-220 127 -5 293 c-6 324 -7 328 -77 435 -50 77 -86 101 -126 85z"/>
<path d="M2240 2982 c-21 -17 -23 -27 -22 -117 0 -106 9 -125 57 -125 43 0 55
29 55 133 0 88 -2 97 -22 111 -29 21 -41 20 -68 -2z m48 -119 c-2 -42 -8 -68
-15 -71 -10 -3 -13 17 -13 76 0 43 3 82 7 86 14 14 24 -26 21 -91z"/>
<path d="M781 2858 c-13 -11 -33 -42 -45 -67 -19 -42 -21 -66 -24 -279 -4
-286 -6 -282 97 -282 105 0 103 -8 101 269 0 207 -3 238 -21 286 -18 47 -57
95 -78 95 -4 0 -18 -10 -30 -22z m65 -70 c29 -63 29 -64 32 -293 l4 -230 -69
0 -68 0 2 100 c2 55 4 163 6 240 3 120 7 148 27 193 12 28 26 52 30 52 4 0 20
-28 36 -62z"/>
<path d="M1754 2775 c-22 -34 -13 -53 66 -129 57 -56 74 -66 92 -61 29 9 48
33 48 60 0 13 -26 48 -67 88 -76 75 -110 86 -139 42z m114 -68 c42 -43 53 -67
30 -67 -14 0 -108 89 -108 102 0 22 40 3 78 -35z"/>
<path d="M2653 2738 c-75 -78 -83 -99 -48 -133 34 -35 55 -27 133 48 49 49 62
68 62 92 0 39 -16 55 -55 55 -24 0 -43 -13 -92 -62z m97 -2 c0 -7 -24 -35 -52
-62 -44 -41 -53 -46 -56 -30 -3 11 12 35 39 62 43 44 69 56 69 30z"/>
<path d="M2178 2606 c-90 -24 -174 -97 -217 -186 -22 -47 -26 -68 -26 -150 0
-89 2 -99 34 -158 39 -71 79 -110 154 -149 46 -25 63 -28 147 -28 82 0 103 4
150 26 69 33 133 97 168 169 23 48 27 67 27 145 -1 81 -4 96 -32 150 -48 93
-117 151 -213 179 -63 19 -127 19 -192 2z m223 -57 c65 -28 131 -100 159 -175
53 -142 -18 -313 -159 -377 -64 -30 -187 -30 -252 -1 -103 48 -168 139 -177
251 -19 235 210 396 429 302z"/>
<path d="M2165 2519 c-140 -70 -196 -224 -131 -361 78 -164 281 -206 413 -85
146 134 116 354 -59 441 -66 33 -163 35 -223 5z m220 -47 c125 -68 155 -238
60 -350 -84 -100 -246 -103 -336 -5 -90 97 -84 246 13 328 48 41 86 54 153 54
47 0 71 -6 110 -27z"/>
<path d="M1566 2314 c-20 -20 -21 -68 -1 -84 13 -10 100 -15 202 -11 39 2 56
66 25 94 -26 24 -203 24 -226 1z m182 -41 c3 -10 -16 -13 -72 -13 -70 0 -87 6
-69 24 12 12 136 2 141 -11z"/>
<path d="M2757 2312 c-20 -22 -22 -52 -4 -76 12 -16 28 -19 113 -18 89 1 100
3 116 22 22 27 22 39 2 68 -14 20 -23 22 -113 22 -82 0 -101 -3 -114 -18z
m191 -39 c3 -10 -17 -13 -77 -13 -75 0 -92 6 -74 24 12 12 146 2 151 -11z"/>
<path d="M763 2184 c-81 -40 -95 -140 -29 -201 28 -26 44 -33 77 -33 35 0 48
6 80 39 33 33 39 45 39 81 0 51 -30 97 -76 116 -42 18 -51 17 -91 -2z m111
-54 c28 -28 26 -83 -4 -115 -50 -53 -140 -16 -140 57 1 78 89 113 144 58z"/>
<path d="M405 1960 c-179 -104 -227 -140 -269 -204 -32 -47 -33 -69 -4 -96 48
-45 149 -15 359 106 85 48 169 103 187 121 l33 32 -22 43 c-37 72 -60 98 -88
98 -14 -1 -102 -45 -196 -100z m219 46 c3 -14 17 -38 31 -54 l25 -30 -186
-108 c-123 -71 -205 -112 -242 -120 -65 -16 -112 -18 -112 -6 0 12 53 83 81
109 23 21 377 232 390 233 4 0 10 -11 13 -24z"/>
<path d="M984 2038 c-32 -35 -64 -93 -64 -115 0 -29 31 -52 190 -143 184 -106
232 -128 296 -136 56 -7 87 4 104 37 15 27 -23 92 -84 146 -53 46 -360 226
-396 231 -17 2 -32 -4 -46 -20z m182 -94 c201 -115 248 -148 289 -204 19 -26
35 -51 35 -55 0 -14 -121 4 -168 25 -34 15 -341 186 -370 206 -2 1 8 20 22 41
14 20 26 46 26 55 0 10 4 18 8 18 5 0 76 -39 158 -86z"/>
<path d="M1814 1898 c-77 -74 -87 -100 -51 -135 35 -36 61 -26 135 51 65 68
77 100 46 130 -30 31 -62 19 -130 -46z m96 -2 c0 -7 -23 -35 -51 -61 -37 -35
-54 -44 -62 -36 -8 8 2 24 38 61 49 50 75 62 75 36z"/>
<path d="M2602 1948 c-31 -40 -25 -57 44 -128 76 -79 95 -88 129 -66 44 29 33
63 -42 139 -68 68 -107 84 -131 55z m106 -81 c37 -38 55 -77 35 -77 -13 0
-103 94 -103 107 0 24 26 13 68 -30z"/>
<path d="M2235 1790 c-14 -16 -18 -37 -17 -115 0 -105 8 -125 53 -125 49 0 59
21 59 129 0 82 -3 101 -18 114 -25 23 -55 21 -77 -3z m50 -110 c0 -50 -4 -75
-12 -77 -10 -4 -13 16 -13 77 0 61 3 81 13 78 8 -3 12 -28 12 -78z"/>
<path d="M1202 1285 c-23 -19 -35 -44 -51 -103 -28 -103 -27 -126 5 -151 24
-19 40 -21 150 -21 113 0 125 2 149 23 27 23 39 60 50 164 6 58 5 64 -19 88
-24 24 -30 25 -140 25 -107 0 -116 -2 -144 -25z m268 -27 c0 -7 -5 -57 -12
-110 l-12 -98 -143 0 c-79 0 -143 3 -143 8 0 10 51 196 57 205 2 4 60 7 129 7
92 0 124 -3 124 -12z"/>
<path d="M1583 1295 c-27 -19 -41 -66 -49 -166 -6 -74 -6 -76 21 -97 25 -20
39 -22 155 -22 114 0 130 2 154 21 25 20 26 24 26 129 0 105 -1 109 -26 129
-24 19 -40 21 -143 21 -88 0 -122 -4 -138 -15z m269 -135 l0 -105 -147 -3
-147 -3 6 28 c7 34 26 163 26 181 0 10 30 12 131 10 l131 -3 0 -105z"/>
<path d="M1956 1284 c-24 -25 -26 -33 -26 -116 0 -147 12 -157 177 -158 188 0
200 11 178 157 -20 137 -27 143 -184 143 -114 0 -119 -1 -145 -26z m291 -114
c6 -52 12 -101 12 -107 1 -10 -34 -13 -144 -13 l-145 0 0 110 0 111 132 -3
132 -3 13 -95z"/>
<path d="M2346 1289 c-21 -17 -26 -29 -26 -67 0 -92 18 -165 45 -189 24 -21
36 -23 156 -23 125 0 131 1 154 25 30 29 30 30 6 120 -23 91 -46 134 -77 145
-14 6 -72 10 -128 10 -89 0 -107 -3 -130 -21z m261 -31 c5 -7 20 -50 32 -96
12 -45 24 -89 28 -97 4 -13 -17 -15 -140 -15 l-146 0 -6 33 c-6 37 -25 168
-25 180 0 13 247 8 257 -5z"/>
<path d="M662 1004 c-43 -30 -20 -104 32 -104 52 0 76 75 34 104 -12 9 -27 16
-33 16 -6 0 -21 -7 -33 -16z"/>
<path d="M1108 957 c-16 -15 -32 -50 -46 -103 -43 -157 -34 -168 151 -172 162
-4 203 5 223 53 7 19 17 72 20 118 6 79 5 85 -17 105 -21 20 -33 22 -164 22
-134 0 -143 -1 -167 -23z m322 -23 c0 -6 -17 -129 -25 -179 l-5 -30 -166 0
c-160 0 -165 1 -160 20 3 11 16 59 28 108 l23 87 152 0 c84 0 153 -3 153 -6z"/>
<path d="M1528 952 c-19 -22 -27 -50 -36 -122 l-13 -94 26 -25 c25 -26 27 -26
186 -26 203 0 199 -3 199 150 0 100 -1 104 -26 124 -24 19 -40 21 -169 21
l-143 0 -24 -28z m325 -117 l-2 -106 -165 -2 c-106 -1 -166 2 -166 8 0 17 22
179 26 193 2 9 43 12 156 12 l153 0 -2 -105z"/>
<path d="M1959 961 c-22 -18 -24 -28 -27 -123 -4 -101 -3 -104 23 -128 26 -24
32 -25 173 -27 211 -3 224 7 202 160 -9 66 -18 92 -35 112 -24 25 -27 25 -168
25 -128 0 -148 -2 -168 -19z m331 -123 c7 -57 12 -104 11 -106 0 -1 -75 -4
-166 -5 l-165 -2 0 108 0 107 154 0 154 0 12 -102z"/>
<path d="M2384 956 l-28 -23 12 -93 c12 -100 28 -135 69 -151 27 -10 246 -11
296 -2 16 3 35 16 44 30 14 21 14 31 -8 116 -17 66 -31 100 -50 120 -27 27
-28 27 -168 27 -132 0 -141 -1 -167 -24z m326 -58 c16 -61 39 -145 45 -160 4
-10 -29 -13 -162 -11 l-168 2 -12 78 c-7 43 -14 90 -17 106 l-5 27 154 0 154
0 11 -42z"/>
<path d="M1021 633 c-14 -11 -31 -50 -46 -102 -30 -103 -30 -111 -4 -145 l21
-26 185 2 c185 3 186 3 204 28 12 16 23 59 30 118 11 91 11 93 -11 117 -23 25
-26 25 -191 25 -144 0 -170 -2 -188 -17z m350 -128 l-14 -105 -184 0 c-212 0
-195 -13 -161 123 l23 87 175 0 175 0 -14 -105z"/>
<path d="M1493 635 c-26 -18 -39 -62 -49 -161 -6 -65 -4 -74 15 -93 20 -20 31
-21 206 -21 232 0 225 -5 225 145 0 93 -2 103 -23 123 -22 21 -33 22 -188 22
-132 0 -169 -3 -186 -15z m362 -130 l0 -105 -194 0 c-152 0 -192 3 -188 13 2
7 10 54 17 105 l13 92 176 0 176 0 0 -105z"/>
<path d="M1955 625 c-23 -22 -25 -31 -25 -123 0 -145 -5 -142 232 -142 166 0
187 2 201 18 32 35 14 207 -24 249 -22 22 -27 23 -191 23 -166 0 -169 0 -193
-25z m369 -37 c3 -13 8 -45 11 -73 3 -27 9 -65 12 -82 l5 -33 -191 0 -191 0 0
105 0 105 175 0 c173 0 175 0 179 -22z"/>
<path d="M2424 625 c-19 -19 -24 -32 -20 -53 3 -15 8 -54 12 -87 7 -67 25
-109 49 -119 9 -3 94 -6 189 -6 167 0 173 1 194 23 28 29 28 66 1 153 -35 115
-33 114 -231 114 -167 0 -169 0 -194 -25z m390 -111 c14 -52 24 -99 21 -105
-4 -5 -86 -9 -189 -9 l-183 0 -7 68 c-3 37 -9 84 -12 105 l-7 37 175 0 175 0
27 -96z"/>
<path d="M970 298 c-29 -31 -30 -168 -1 -197 29 -29 78 -33 408 -29 l301 3 26
24 c23 22 26 32 26 96 0 58 -4 78 -21 99 l-20 26 -349 0 c-346 0 -349 0 -370
-22z m720 -98 l0 -80 -345 0 c-190 0 -348 0 -351 0 -3 0 -7 36 -7 80 l-2 80
353 0 352 0 0 -80z"/>
<path d="M1790 298 c-28 -31 -29 -164 -1 -199 18 -22 26 -24 121 -24 99 0 102
1 126 28 33 38 35 144 3 188 -20 29 -21 29 -124 29 -94 0 -106 -2 -125 -22z
m230 -98 l0 -80 -100 0 c-55 0 -103 0 -106 0 -4 0 -7 36 -8 80 l-1 80 108 0
107 0 0 -80z"/>
</g>
</svg>
